<svg width="186" height="34" viewBox="0 0 186 34" fill="none" xmlns="http://www.w3.org/2000/svg">
<path fill-rule="evenodd" clip-rule="evenodd" d="M100.575 10.8752C99.6863 10.3184 98.6231 10.04 97.386 10.04C96.0523 10.04 94.8587 10.3712 93.8052 11.0336C92.7517 11.696 91.9206 12.6464 91.3117 13.8848C90.7028 15.1232 90.3983 16.5872 90.3983 18.2768C90.3983 19.9472 90.7028 21.4064 91.3117 22.6544C91.9206 23.9024 92.7517 24.8576 93.8052 25.52C94.8587 26.1824 96.0523 26.5136 97.386 26.5136C98.6231 26.5136 99.6863 26.2352 100.575 25.6784C101.465 25.1216 102.112 24.3632 102.518 23.4032V26.312H107.476V5H102.518V13.1504C102.112 12.1904 101.465 11.432 100.575 10.8752ZM47.1094 26.312V19.1696H50.1828C51.7872 19.1696 53.1499 18.8864 54.2711 18.32C55.3922 17.7536 56.2379 16.976 56.8081 15.9872C57.3783 14.9984 57.6634 13.8704 57.6634 12.6032C57.6634 10.568 57.0256 8.95041 55.7498 7.7504C54.474 6.55039 52.6184 5.9504 50.1828 5.9504H42.1513V26.312H47.1094ZM52.6184 12.6032C52.6184 14.3504 51.6229 15.224 49.6319 15.224H47.1094V9.9248H49.6319C51.6229 9.9248 52.6184 10.8176 52.6184 12.6032ZM65.0571 13.2656C65.6756 12.2864 66.473 11.5088 67.4491 10.9328C68.4253 10.3568 69.4836 10.0688 70.624 10.0688V15.3392H69.2033C67.8889 15.3392 66.8692 15.6176 66.1444 16.1744C65.4195 16.7312 65.0571 17.672 65.0571 18.9968V26.312H60.099V10.2416H65.0571V13.2656ZM84.5849 11.0336C83.3188 10.3712 81.8836 10.04 80.2792 10.04C78.6749 10.04 77.2348 10.3712 75.959 11.0336C74.6833 11.696 73.683 12.6512 72.9581 13.8992C72.2332 15.1472 71.8708 16.6064 71.8708 18.2768C71.8708 19.9472 72.2332 21.4064 72.9581 22.6544C73.683 23.9024 74.6833 24.8576 75.959 25.52C77.2348 26.1824 78.6749 26.5136 80.2792 26.5136C81.8836 26.5136 83.3188 26.1824 84.5849 25.52C85.851 24.8576 86.8465 23.9024 87.5714 22.6544C88.2962 21.4064 88.6587 19.9472 88.6587 18.2768C88.6587 16.6064 88.2962 15.1472 87.5714 13.8992C86.8465 12.6512 85.851 11.696 84.5849 11.0336ZM80.2792 14.3024C79.3321 14.3024 78.5347 14.6432 77.8872 15.3248C77.2396 16.0064 76.9159 16.9904 76.9159 18.2768C76.9159 19.5632 77.2396 20.5424 77.8872 21.2144C78.5347 21.8864 79.3321 22.2224 80.2792 22.2224C81.2264 22.2224 82.0189 21.8864 82.6568 21.2144C83.2947 20.5424 83.6136 19.5632 83.6136 18.2768C83.6136 16.9904 83.2947 16.0064 82.6568 15.3248C82.0189 14.6432 81.2264 14.3024 80.2792 14.3024ZM98.9807 14.36C97.9176 14.36 97.0623 14.7056 96.4147 15.3968C95.7672 16.088 95.4434 17.048 95.4434 18.2768C95.4434 19.5056 95.7672 20.4656 96.4147 21.1568C97.0623 21.848 97.9176 22.1936 98.9807 22.1936C100.025 22.1936 100.88 21.8384 101.547 21.128C102.214 20.4176 102.547 19.4672 102.547 18.2768C102.547 17.0672 102.214 16.112 101.547 15.4112C100.88 14.7104 100.025 14.36 98.9807 14.36ZM122.002 26.312H126.99V10.2416H122.002V18.7664C122.002 19.9376 121.713 20.84 121.133 21.4736C120.553 22.1072 119.76 22.424 118.755 22.424C117.789 22.424 117.02 22.1216 116.45 21.5168C115.88 20.912 115.595 20.0624 115.595 18.968V10.2416H110.666V19.5728C110.666 21.7232 111.212 23.4128 112.304 24.6416C113.396 25.8704 114.87 26.4848 116.725 26.4848C117.943 26.4848 119.011 26.2064 119.929 25.6496C120.848 25.0928 121.539 24.344 122.002 23.4032V26.312ZM137.718 10.04C139.805 10.04 141.554 10.6112 142.966 11.7536C144.377 12.896 145.266 14.4656 145.633 16.4624H140.385C140.23 15.7712 139.911 15.2336 139.428 14.8496C138.945 14.4656 138.336 14.2736 137.602 14.2736C136.732 14.2736 136.017 14.6144 135.456 15.296C134.895 15.9776 134.615 16.9712 134.615 18.2768C134.615 19.5824 134.895 20.576 135.456 21.2576C136.017 21.9392 136.732 22.28 137.602 22.28C138.336 22.28 138.945 22.088 139.428 21.704C139.911 21.32 140.23 20.7824 140.385 20.0912H145.633C145.266 22.088 144.377 23.6576 142.966 24.8C141.554 25.9424 139.805 26.5136 137.718 26.5136C136.132 26.5136 134.726 26.1824 133.499 25.52C132.271 24.8576 131.31 23.9024 130.614 22.6544C129.918 21.4064 129.57 19.9472 129.57 18.2768C129.57 16.5872 129.913 15.1232 130.599 13.8848C131.286 12.6464 132.247 11.696 133.484 11.0336C134.721 10.3712 136.132 10.04 137.718 10.04ZM157.376 26.312V22.0784H155.81C155.192 22.0784 154.752 21.9536 154.491 21.704C154.23 21.4544 154.099 21.0128 154.099 20.3792V14.3888H157.347V10.2416H154.099V6.296H149.141V10.2416H146.967V14.3888H149.141V20.2928C149.141 22.4432 149.668 23.984 150.722 24.9152C151.775 25.8464 153.249 26.312 155.143 26.312H157.376ZM165.117 5V26.312H160.159V5H165.117ZM176.164 20.0912L172.279 10.2416H166.741L173.526 25.7072L169.728 33.9728H175.179L185.269 10.2416H179.789L176.164 20.0912Z" fill="#173A56"/>
<rect x="0.029541" y="17" width="24" height="24" rx="4" transform="rotate(-45 0.029541 17)" fill="#61DBE4"/>
<rect x="0.029541" y="17" width="24" height="24" rx="4" transform="rotate(-45 0.029541 17)" fill="url(#paint0_linear)"/>
<defs>
<linearGradient id="paint0_linear" x1="12.0295" y1="17" x2="12.0295" y2="41" gradientUnits="userSpaceOnUse">
<stop stop-color="#775298"/>
<stop offset="1" stop-color="white" stop-opacity="0"/>
</linearGradient>
</defs>
</svg>
